<svg width="25" height="26" viewBox="0 0 25 26" fill="none" xmlns="http://www.w3.org/2000/svg">
<path d="M12.5 25.5C10.7917 25.5 9.17708 25.1719 7.65625 24.5156C6.13542 23.8594 4.80729 22.9635 3.67188 21.8281C2.53646 20.6927 1.64063 19.3646 0.984375 17.8438C0.328125 16.3229 0 14.7083 0 13C0 11.2708 0.328125 9.65104 0.984375 8.14062C1.64063 6.63021 2.53646 5.30729 3.67188 4.17188C4.80729 3.03646 6.13542 2.14063 7.65625 1.48438C9.17708 0.828125 10.7917 0.5 12.5 0.5C14.2292 0.5 15.849 0.828125 17.3594 1.48438C18.8698 2.14063 20.1927 3.03646 21.3281 4.17188C22.4635 5.30729 23.3594 6.63021 24.0156 8.14062C24.6719 9.65104 25 11.2708 25 13C25 14.7083 24.6719 16.3229 24.0156 17.8438C23.3594 19.3646 22.4635 20.6927 21.3281 21.8281C20.1927 22.9635 18.8698 23.8594 17.3594 24.5156C15.849 25.1719 14.2292 25.5 12.5 25.5ZM12.5 22.9375C13.0417 22.1875 13.5104 21.4063 13.9062 20.5938C14.3021 19.7812 14.625 18.9167 14.875 18H10.125C10.375 18.9167 10.6979 19.7812 11.0938 20.5938C11.4896 21.4063 11.9583 22.1875 12.5 22.9375ZM9.25 22.4375C8.875 21.75 8.54688 21.0365 8.26562 20.2969C7.98438 19.5573 7.75 18.7917 7.5625 18H3.875C4.47917 19.0417 5.23438 19.9479 6.14062 20.7188C7.04688 21.4896 8.08333 22.0625 9.25 22.4375ZM15.75 22.4375C16.9167 22.0625 17.9531 21.4896 18.8594 20.7188C19.7656 19.9479 20.5208 19.0417 21.125 18H17.4375C17.25 18.7917 17.0156 19.5573 16.7344 20.2969C16.4531 21.0365 16.125 21.75 15.75 22.4375ZM2.8125 15.5H7.0625C7 15.0833 6.95312 14.6719 6.92188 14.2656C6.89062 13.8594 6.875 13.4375 6.875 13C6.875 12.5625 6.89062 12.1406 6.92188 11.7344C6.95312 11.3281 7 10.9167 7.0625 10.5H2.8125C2.70833 10.9167 2.63021 11.3281 2.57812 11.7344C2.52604 12.1406 2.5 12.5625 2.5 13C2.5 13.4375 2.52604 13.8594 2.57812 14.2656C2.63021 14.6719 2.70833 15.0833 2.8125 15.5ZM9.5625 15.5H15.4375C15.5 15.0833 15.5469 14.6719 15.5781 14.2656C15.6094 13.8594 15.625 13.4375 15.625 13C15.625 12.5625 15.6094 12.1406 15.5781 11.7344C15.5469 11.3281 15.5 10.9167 15.4375 10.5H9.5625C9.5 10.9167 9.45312 11.3281 9.42188 11.7344C9.39062 12.1406 9.375 12.5625 9.375 13C9.375 13.4375 9.39062 13.8594 9.42188 14.2656C9.45312 14.6719 9.5 15.0833 9.5625 15.5ZM17.9375 15.5H22.1875C22.2917 15.0833 22.3698 14.6719 22.4219 14.2656C22.474 13.8594 22.5 13.4375 22.5 13C22.5 12.5625 22.474 12.1406 22.4219 11.7344C22.3698 11.3281 22.2917 10.9167 22.1875 10.5H17.9375C18 10.9167 18.0469 11.3281 18.0781 11.7344C18.1094 12.1406 18.125 12.5625 18.125 13C18.125 13.4375 18.1094 13.8594 18.0781 14.2656C18.0469 14.6719 18 15.0833 17.9375 15.5ZM17.4375 8H21.125C20.5208 6.95833 19.7656 6.05208 18.8594 5.28125C17.9531 4.51042 16.9167 3.9375 15.75 3.5625C16.125 4.25 16.4531 4.96354 16.7344 5.70312C17.0156 6.44271 17.25 7.20833 17.4375 8ZM10.125 8H14.875C14.625 7.08333 14.3021 6.21875 13.9062 5.40625C13.5104 4.59375 13.0417 3.8125 12.5 3.0625C11.9583 3.8125 11.4896 4.59375 11.0938 5.40625C10.6979 6.21875 10.375 7.08333 10.125 8ZM3.875 8H7.5625C7.75 7.20833 7.98438 6.44271 8.26562 5.70312C8.54688 4.96354 8.875 4.25 9.25 3.5625C8.08333 3.9375 7.04688 4.51042 6.14062 5.28125C5.23438 6.05208 4.47917 6.95833 3.875 8Z" fill="white"/>
</svg>
