<svg width="27" height="22" viewBox="0 0 27 22" fill="none" xmlns="http://www.w3.org/2000/svg">
<path d="M13.5 17.7502C13.8825 17.7502 14.2031 17.6208 14.4619 17.3621C14.7206 17.1033 14.85 16.7827 14.85 16.4002C14.85 16.0177 14.7206 15.6971 14.4619 15.4383C14.2031 15.1796 13.8825 15.0502 13.5 15.0502C13.1175 15.0502 12.7969 15.1796 12.5381 15.4383C12.2794 15.6971 12.15 16.0177 12.15 16.4002C12.15 16.7827 12.2794 17.1033 12.5381 17.3621C12.7969 17.6208 13.1175 17.7502 13.5 17.7502ZM13.5 12.3502C13.8825 12.3502 14.2031 12.2208 14.4619 11.9621C14.7206 11.7033 14.85 11.3827 14.85 11.0002C14.85 10.6177 14.7206 10.2971 14.4619 10.0383C14.2031 9.77957 13.8825 9.6502 13.5 9.6502C13.1175 9.6502 12.7969 9.77957 12.5381 10.0383C12.2794 10.2971 12.15 10.6177 12.15 11.0002C12.15 11.3827 12.2794 11.7033 12.5381 11.9621C12.7969 12.2208 13.1175 12.3502 13.5 12.3502ZM13.5 6.9502C13.8825 6.9502 14.2031 6.82082 14.4619 6.56207C14.7206 6.30332 14.85 5.9827 14.85 5.6002C14.85 5.2177 14.7206 4.89707 14.4619 4.63832C14.2031 4.37957 13.8825 4.2502 13.5 4.2502C13.1175 4.2502 12.7969 4.37957 12.5381 4.63832C12.2794 4.89707 12.15 5.2177 12.15 5.6002C12.15 5.9827 12.2794 6.30332 12.5381 6.56207C12.7969 6.82082 13.1175 6.9502 13.5 6.9502ZM24.3 21.8002H2.7C1.9575 21.8002 1.32188 21.5358 0.793125 21.0071C0.264375 20.4783 0 19.8427 0 19.1002V13.7002C0.7425 13.7002 1.37813 13.4358 1.90688 12.9071C2.43563 12.3783 2.7 11.7427 2.7 11.0002C2.7 10.2577 2.43563 9.62207 1.90688 9.09332C1.37813 8.56457 0.7425 8.3002 0 8.3002V2.9002C0 2.1577 0.264375 1.52207 0.793125 0.99332C1.32188 0.46457 1.9575 0.200195 2.7 0.200195H24.3C25.0425 0.200195 25.6781 0.46457 26.2069 0.99332C26.7356 1.52207 27 2.1577 27 2.9002V8.3002C26.2575 8.3002 25.6219 8.56457 25.0931 9.09332C24.5644 9.62207 24.3 10.2577 24.3 11.0002C24.3 11.7427 24.5644 12.3783 25.0931 12.9071C25.6219 13.4358 26.2575 13.7002 27 13.7002V19.1002C27 19.8427 26.7356 20.4783 26.2069 21.0071C25.6781 21.5358 25.0425 21.8002 24.3 21.8002ZM24.3 19.1002V15.6577C23.4675 15.1627 22.8094 14.5046 22.3256 13.6833C21.8419 12.8621 21.6 11.9677 21.6 11.0002C21.6 10.0327 21.8419 9.13832 22.3256 8.31707C22.8094 7.49582 23.4675 6.8377 24.3 6.3427V2.9002H2.7V6.3427C3.5325 6.8377 4.19063 7.49582 4.67438 8.31707C5.15813 9.13832 5.4 10.0327 5.4 11.0002C5.4 11.9677 5.15813 12.8621 4.67438 13.6833C4.19063 14.5046 3.5325 15.1627 2.7 15.6577V19.1002H24.3Z" fill="white"/>
</svg>
